<svg width="115" height="54" viewBox="0 0 115 54" fill="none" xmlns="http://www.w3.org/2000/svg">
<g clip-path="url(#clip0_114_2)">
<path d="M87.5335 30.7751L82.3853 25.9586C81.9513 25.5526 81.4187 25.3496 80.7875 25.3496C80.1563 25.3496 79.604 25.571 79.1306 26.0139C78.6967 26.4199 78.4797 26.9366 78.4797 27.5641C78.4797 28.1915 78.6967 28.7082 79.1306 29.1142L85.8766 35.4256C86.3106 35.8316 86.8629 36.0346 87.5335 36.0346C88.2042 36.0346 88.7565 35.8316 89.1904 35.4256L102.623 22.8582C103.057 22.4522 103.274 21.954 103.274 21.3634C103.274 20.7729 103.037 20.2562 102.564 19.8133C102.13 19.4073 101.578 19.2043 100.907 19.2043C100.236 19.2043 99.6842 19.4073 99.2502 19.8133L87.5335 30.7751ZM90.8473 48.9341C87.573 48.9341 84.4959 48.3525 81.616 47.1891C78.7361 46.0272 76.2311 44.4497 74.1007 42.4567C71.9704 40.4636 70.2843 38.1199 69.0424 35.4256C67.799 32.7313 67.1772 29.8524 67.1772 26.789C67.1772 23.7256 67.799 20.8467 69.0424 18.1524C70.2843 15.4581 71.9704 13.1144 74.1007 11.1213C76.2311 9.12825 78.7361 7.55004 81.616 6.38668C84.4959 5.2248 87.573 4.64386 90.8473 4.64386C94.1217 4.64386 97.1988 5.2248 100.079 6.38668C102.959 7.55004 105.464 9.12825 107.594 11.1213C109.724 13.1144 111.41 15.4581 112.652 18.1524C113.896 20.8467 114.517 23.7256 114.517 26.789C114.517 29.8524 113.896 32.7313 112.652 35.4256C111.41 38.1199 109.724 40.4636 107.594 42.4567C105.464 44.4497 102.959 46.0272 100.079 47.1891C97.1988 48.3525 94.1217 48.9341 90.8473 48.9341Z" fill="#19940E"/>
</g>
<g clip-path="url(#clip1_114_2)">
<path d="M33.6057 31.5723C27.2207 31.5723 14.4744 34.5176 14.4744 40.4304V44.8594H52.737V40.4304C52.737 34.5176 39.9908 31.5723 33.6057 31.5723ZM33.6057 27.1433C36.1427 27.1433 38.5757 26.21 40.3696 24.5488C42.1636 22.8876 43.1714 20.6345 43.1714 18.2852C43.1714 15.9359 42.1636 13.6829 40.3696 12.0216C38.5757 10.3604 36.1427 9.42719 33.6057 9.42719C31.0688 9.42719 28.6357 10.3604 26.8418 12.0216C25.0479 13.6829 24.0401 15.9359 24.0401 18.2852C24.0401 20.6345 25.0479 22.8876 26.8418 24.5488C28.6357 26.21 31.0688 27.1433 33.6057 27.1433ZM9.69162 29.9779L15.5506 33.2775L13.9962 27.0547L19.2573 22.8914L12.3461 22.3378L9.69162 16.4915L6.98932 22.3378L0.125977 22.8914L5.33925 27.0547L3.71309 33.2775L9.69162 29.9779Z" fill="white"/>
</g>
<defs>
<clipPath id="clip0_114_2">
<rect width="56.8082" height="53.1483" fill="white" transform="translate(57.5198 0.391968)"/>
</clipPath>
<clipPath id="clip1_114_2">
<rect width="57.3939" height="53.1483" fill="white" transform="translate(0.125977 0.391968)"/>
</clipPath>
</defs>
</svg>
